<?xml version="1.0" standalone="no"?>
<!DOCTYPE svg PUBLIC "-//W3C//DTD SVG 20010904//EN"
 "http://www.w3.org/TR/2001/REC-SVG-20010904/DTD/svg10.dtd">
<svg version="1.0" xmlns="http://www.w3.org/2000/svg"
 width="500.000000pt" height="500.000000pt" viewBox="0 0 500.000000 500.000000"
 preserveAspectRatio="xMidYMid meet">

<g transform="translate(0.000000,500.000000) scale(0.100000,-0.100000)"
fill="#000000" stroke="none">
<path d="M3992 3788 c-12 -6 -37 -34 -56 -62 -39 -58 -136 -247 -136 -264 0
-6 -21 -14 -47 -18 -27 -4 -65 -13 -87 -20 -21 -8 -71 -14 -111 -14 -101 0
-185 -28 -267 -90 -127 -96 -220 -253 -243 -410 -11 -75 -45 -204 -61 -227 -9
-14 -25 -23 -39 -23 -30 0 -32 -10 -5 -33 16 -13 20 -29 20 -81 0 -113 44
-196 105 -196 33 0 62 16 113 64 l33 31 -21 -47 c-58 -133 -78 -332 -44 -461
35 -136 131 -284 238 -366 69 -54 187 -107 271 -123 l67 -13 -4 -98 c-3 -53
-8 -100 -12 -104 -4 -4 -19 -7 -33 -8 -15 0 -28 -6 -31 -13 -3 -10 8 -12 44
-10 48 3 49 3 56 43 4 22 7 72 7 111 l1 71 123 5 c67 3 123 5 125 3 1 -1 5
-47 9 -101 7 -126 11 -134 69 -134 55 0 57 22 3 30 l-34 5 -7 105 c-4 57 -5
107 -2 109 3 3 32 15 64 27 148 53 284 178 358 325 54 107 72 182 72 291 0 48
4 88 9 88 10 0 52 109 71 186 12 47 11 55 -9 98 -28 57 -83 97 -181 130 -40
13 -76 30 -81 37 -13 21 -28 125 -44 294 -8 88 -19 184 -25 214 -5 30 -9 55
-7 57 1 2 24 -11 51 -27 80 -50 161 -65 280 -51 106 12 169 26 303 68 109 35
116 44 57 79 -26 15 -93 73 -149 129 -153 152 -272 212 -444 223 -115 7 -175
-11 -288 -86 -48 -32 -101 -62 -118 -65 -28 -7 -26 -4 30 54 33 34 97 93 143
133 48 41 81 78 80 87 -2 8 -23 25 -48 38 -48 24 -128 29 -168 10z m472 -224
c119 -30 201 -79 305 -184 53 -53 111 -108 129 -121 l33 -26 -75 -22 c-224
-67 -396 -78 -486 -32 -75 39 -235 160 -343 261 -12 10 112 98 171 121 60 23
182 25 266 3z m-479 -194 c135 -47 212 -128 235 -249 5 -27 16 -128 25 -225
20 -217 31 -259 93 -364 95 -156 141 -300 142 -434 0 -97 -16 -161 -66 -266
-79 -163 -220 -281 -394 -328 -89 -24 -290 -24 -380 0 -115 31 -188 74 -275
161 -135 135 -191 276 -183 460 6 128 50 260 132 398 56 94 85 176 86 238 0
18 9 33 27 44 57 37 116 102 143 155 26 52 80 206 115 332 16 55 38 82 85 101
27 12 154 -2 215 -23z m-352 -121 c-86 -307 -128 -368 -318 -461 -82 -40 -272
-105 -281 -96 -2 3 0 17 5 31 6 15 22 84 36 154 33 162 74 250 157 339 116
124 179 153 334 154 l102 0 -35 -121z m-289 -516 c-26 -119 -48 -154 -162
-265 -104 -102 -127 -110 -163 -52 -16 27 -23 59 -29 127 -3 51 -6 93 -6 93 1
1 44 13 96 28 52 15 131 42 175 60 100 42 97 41 89 9z m1098 -179 c59 -20 124
-75 138 -118 9 -29 6 -47 -21 -132 l-32 -99 -17 65 c-23 84 -53 160 -96 238
-19 34 -31 62 -26 62 5 0 29 -7 54 -16z"/>
<path d="M4150 3443 c187 -18 304 -49 491 -128 70 -30 131 -55 136 -55 16 0
-233 134 -282 151 -69 24 -189 39 -293 37 -48 0 -71 -3 -52 -5z"/>
<path d="M3540 2853 c-38 -14 -60 -47 -60 -89 0 -35 5 -47 31 -68 17 -14 39
-26 49 -26 51 0 100 49 100 99 0 45 -78 100 -120 84z"/>
<path d="M4023 2845 c-84 -36 -64 -157 29 -172 32 -5 41 -1 68 25 50 51 38
121 -25 148 -40 16 -32 17 -72 -1z"/>
<path d="M3747 2713 c-26 -25 27 -83 76 -83 36 0 77 33 77 63 0 28 -16 27 -39
-3 -28 -39 -57 -38 -79 0 -17 31 -24 35 -35 23z"/>
<path d="M3723 2526 c-109 -35 -215 -133 -253 -234 -31 -79 -31 -195 0 -275
30 -80 113 -167 198 -209 61 -30 75 -33 157 -33 70 1 103 6 147 24 81 31 160
106 200 189 31 62 33 74 33 167 0 89 -3 107 -29 162 -35 77 -114 154 -193 190
-70 32 -193 41 -260 19z"/>
<path d="M3509 3270 c-151 -108 -215 -177 -283 -305 -33 -60 -75 -135 -94
-165 -19 -30 -28 -49 -19 -41 9 7 37 44 62 82 25 38 66 101 92 140 57 88 184
223 281 301 40 32 70 58 65 58 -4 0 -51 -32 -104 -70z"/>
<path d="M231 2278 c-5 -13 -28 -83 -52 -157 -31 -95 -49 -135 -61 -139 -10
-2 -18 -11 -18 -18 0 -10 16 -14 60 -14 47 0 60 3 60 15 0 8 -7 15 -15 15 -16
0 -19 17 -9 44 8 22 134 23 134 2 0 -8 3 -21 6 -30 4 -11 1 -16 -10 -16 -9 0
-16 -7 -16 -15 0 -12 14 -15 65 -15 49 0 65 3 65 14 0 8 -6 16 -14 19 -8 3
-37 76 -66 161 l-52 156 -34 0 c-27 0 -36 -5 -43 -22z m79 -190 c0 -5 -22 -8
-49 -8 l-50 0 20 68 c10 37 22 74 25 82 5 12 53 -116 54 -142z"/>
<path d="M600 2278 c-64 -33 -84 -66 -88 -146 -4 -80 15 -125 67 -159 38 -26
117 -31 184 -12 l37 10 0 60 c0 44 4 61 15 65 8 4 15 12 15 20 0 11 -17 14
-70 14 -55 0 -70 -3 -70 -15 0 -8 11 -17 25 -21 24 -6 26 -10 23 -57 -3 -47
-5 -51 -33 -59 -74 -20 -115 34 -115 149 0 106 37 150 116 141 22 -2 30 -10
36 -36 7 -27 13 -33 31 -30 18 2 23 10 25 44 3 41 2 41 -35 47 -70 12 -118 7
-163 -15z"/>
<path d="M900 2286 c0 -8 7 -16 15 -20 12 -4 15 -26 15 -111 0 -122 14 -166
59 -189 35 -19 109 -21 145 -4 49 22 60 53 64 181 3 89 8 120 18 124 8 3 14
11 14 19 0 10 -15 14 -55 14 -41 0 -55 -4 -55 -14 0 -8 10 -18 21 -21 21 -7
21 -12 17 -120 -5 -138 -18 -165 -77 -165 -65 0 -75 22 -79 160 -3 112 -3 118
17 125 12 3 21 13 21 21 0 11 -16 14 -70 14 -53 0 -70 -3 -70 -14z"/>
<path d="M1412 2283 c-5 -10 -31 -82 -56 -160 -32 -95 -52 -143 -62 -143 -8 0
-14 -7 -14 -15 0 -12 13 -15 60 -15 47 0 60 3 60 15 0 8 -9 15 -20 15 -23 0
-23 0 -10 34 9 24 14 26 70 26 56 0 61 -2 70 -26 13 -33 13 -31 -10 -37 -11
-3 -20 -10 -20 -16 0 -7 26 -11 70 -11 56 0 70 3 70 15 0 8 -6 15 -13 15 -8 0
-35 64 -67 160 l-55 160 -32 0 c-21 0 -36 -6 -41 -17z m55 -126 c12 -39 23
-73 23 -74 0 -2 -23 -3 -51 -3 -37 0 -50 4 -47 13 3 6 13 42 24 79 10 37 20
65 23 62 2 -2 15 -37 28 -77z"/>
<path d="M1773 2280 c-62 -32 -88 -80 -88 -160 1 -113 52 -170 151 -170 90 0
111 8 117 44 4 27 -5 45 -24 46 -3 0 -11 -11 -17 -25 -16 -34 -56 -49 -90 -33
-38 18 -62 72 -62 141 0 102 35 152 103 145 27 -3 33 -8 40 -40 6 -26 14 -38
27 -38 13 0 19 11 24 47 3 25 5 48 3 49 -2 2 -34 6 -73 9 -58 5 -75 3 -111
-15z"/>
<path d="M2152 2283 c-5 -10 -31 -82 -56 -160 -32 -95 -52 -143 -62 -143 -8 0
-14 -7 -14 -15 0 -12 13 -15 60 -15 47 0 60 3 60 15 0 8 -9 15 -20 15 -23 0
-23 0 -10 34 9 24 14 26 70 26 56 0 61 -2 70 -26 13 -33 13 -31 -10 -37 -11
-3 -20 -10 -20 -16 0 -7 26 -11 70 -11 56 0 70 3 70 15 0 8 -6 15 -13 15 -8 0
-35 64 -67 160 l-55 160 -32 0 c-21 0 -36 -6 -41 -17z m55 -126 c12 -39 23
-73 23 -74 0 -2 -23 -3 -51 -3 -37 0 -50 4 -47 13 3 6 13 42 24 79 10 37 20
65 23 62 2 -2 15 -37 28 -77z"/>
<path d="M2427 2293 c-4 -3 -7 -35 -7 -70 0 -56 2 -64 17 -61 12 2 20 17 25
47 8 48 20 61 56 61 22 0 22 -1 22 -145 l0 -145 -30 0 c-20 0 -30 -5 -30 -15
0 -12 17 -15 95 -15 78 0 95 3 95 15 0 10 -10 15 -30 15 l-30 0 0 145 c0 144
0 145 23 145 35 0 45 -12 52 -62 6 -38 11 -48 26 -48 21 0 23 16 13 94 l-7 46
-142 0 c-78 0 -145 -3 -148 -7z"/>
<path d="M2810 2286 c0 -8 9 -18 20 -21 19 -6 20 -15 20 -146 0 -132 -1 -139
-20 -139 -11 0 -20 -7 -20 -15 0 -13 22 -15 135 -15 108 0 135 3 135 14 0 7 3
28 6 45 6 26 4 31 -14 31 -12 0 -24 -11 -32 -30 -12 -28 -16 -30 -66 -30 l-54
0 0 65 0 65 29 0 c21 0 32 -6 36 -20 3 -11 13 -20 21 -20 10 0 14 14 14 55 0
41 -4 55 -14 55 -8 0 -18 -9 -21 -20 -4 -14 -15 -20 -36 -20 l-29 0 0 65 0 65
45 0 c39 0 47 -4 57 -25 18 -40 40 -32 36 13 l-3 37 -122 3 c-103 2 -123 0
-123 -12z"/>
</g>
</svg>
